<svg xmlns="http://www.w3.org/2000/svg" xmlns:xlink="http://www.w3.org/1999/xlink" width="135" height="40" viewBox="0 0 135 40">
  <defs>
    <linearGradient id="linear-gradient" x1="0.915" y1="6.632" x2="-0.376" y2="5.96" gradientUnits="objectBoundingBox">
      <stop offset="0" stop-color="#00a0ff"/>
      <stop offset="0.007" stop-color="#00a1ff"/>
      <stop offset="0.26" stop-color="#00beff"/>
      <stop offset="0.512" stop-color="#00d2ff"/>
      <stop offset="0.76" stop-color="#00dfff"/>
      <stop offset="1" stop-color="#00e3ff"/>
    </linearGradient>
    <linearGradient id="linear-gradient-2" x1="1.077" y1="17.2" x2="-1.307" y2="17.2" gradientUnits="objectBoundingBox">
      <stop offset="0" stop-color="#ffe000"/>
      <stop offset="0.409" stop-color="#ffbd00"/>
      <stop offset="0.775" stop-color="orange"/>
      <stop offset="1" stop-color="#ff9c00"/>
    </linearGradient>
    <linearGradient id="linear-gradient-3" x1="0.864" y1="10.839" x2="-0.499" y2="9.074" gradientUnits="objectBoundingBox">
      <stop offset="0" stop-color="#ff3a44"/>
      <stop offset="1" stop-color="#c31162"/>
    </linearGradient>
    <linearGradient id="linear-gradient-4" x1="-0.186" y1="13.614" x2="0.423" y2="12.822" gradientUnits="objectBoundingBox">
      <stop offset="0" stop-color="#32a071"/>
      <stop offset="0.068" stop-color="#2da771"/>
      <stop offset="0.476" stop-color="#15cf74"/>
      <stop offset="0.801" stop-color="#06e775"/>
      <stop offset="1" stop-color="#00f076"/>
    </linearGradient>
    <clipPath id="clip-PlayStore">
      <rect width="135" height="40"/>
    </clipPath>
  </defs>
  <g id="PlayStore" clip-path="url(#clip-PlayStore)">
    <g id="google-play" transform="translate(-10 -10)">
      <g id="Group_1700" data-name="Group 1700">
        <path id="Path_837" data-name="Path 837" d="M140,50H15a5.015,5.015,0,0,1-5-5V15a5.015,5.015,0,0,1,5-5H140a5.015,5.015,0,0,1,5,5V45A5.015,5.015,0,0,1,140,50Z"/>
      </g>
      <g id="Group_1702" data-name="Group 1702">
        <g id="Group_1701" data-name="Group 1701">
          <path id="Path_838" data-name="Path 838" d="M140,10.8a4.225,4.225,0,0,1,4.2,4.2V45a4.225,4.225,0,0,1-4.2,4.2H15A4.225,4.225,0,0,1,10.8,45V15A4.225,4.225,0,0,1,15,10.8H140m0-.8H15a5.015,5.015,0,0,0-5,5V45a5.015,5.015,0,0,0,5,5H140a5.015,5.015,0,0,0,5-5V15a5.015,5.015,0,0,0-5-5Z" fill="#a6a6a6"/>
        </g>
      </g>
      <g id="Group_1703" data-name="Group 1703">
        <path id="Path_839" data-name="Path 839" d="M57.4,20.2a2.724,2.724,0,0,1-.7,2A3.1,3.1,0,0,1,51.4,20a3.073,3.073,0,0,1,3.1-3.1,2.663,2.663,0,0,1,1.2.3,2.178,2.178,0,0,1,.9.7l-.5.5a1.865,1.865,0,0,0-1.6-.7,1.99,1.99,0,0,0-1.6.7,2.06,2.06,0,0,0-.7,1.7,2.06,2.06,0,0,0,.7,1.7,2.575,2.575,0,0,0,1.6.7,2.193,2.193,0,0,0,1.7-.7,1.656,1.656,0,0,0,.5-1.2H54.5v-.7h2.9S57.4,20.1,57.4,20.2Z" fill="#fff" stroke="#fff" stroke-miterlimit="10" stroke-width="0.2"/>
        <path id="Path_840" data-name="Path 840" d="M62,17.7H59.3v1.9h2.5v.7H59.3v1.9H62V23H58.5V17H62Z" fill="#fff" stroke="#fff" stroke-miterlimit="10" stroke-width="0.2"/>
        <path id="Path_841" data-name="Path 841" d="M65.3,23h-.8V17.7H62.8V17H67v.7H65.3Z" fill="#fff" stroke="#fff" stroke-miterlimit="10" stroke-width="0.2"/>
        <path id="Path_842" data-name="Path 842" d="M69.9,23V17h.8v6Z" fill="#fff" stroke="#fff" stroke-miterlimit="10" stroke-width="0.2"/>
        <path id="Path_843" data-name="Path 843" d="M74.1,23h-.8V17.7H71.6V17h4.1v.7H74V23Z" fill="#fff" stroke="#fff" stroke-miterlimit="10" stroke-width="0.2"/>
        <path id="Path_844" data-name="Path 844" d="M83.6,22.2A3.1,3.1,0,0,1,78.3,20a3.1,3.1,0,1,1,5.3,2.2Zm-3.8-.5a2.36,2.36,0,0,0,1.6.7,1.99,1.99,0,0,0,1.6-.7,2.413,2.413,0,0,0,.7-1.7,2.06,2.06,0,0,0-.7-1.7,2.36,2.36,0,0,0-1.6-.7,1.99,1.99,0,0,0-1.6.7,2.413,2.413,0,0,0-.7,1.7A2.06,2.06,0,0,0,79.8,21.7Z" fill="#fff" stroke="#fff" stroke-miterlimit="10" stroke-width="0.2"/>
        <path id="Path_845" data-name="Path 845" d="M85.6,23V17h.9l2.9,4.7h0V17h.8v6h-.8l-3.1-4.9h0V23Z" fill="#fff" stroke="#fff" stroke-miterlimit="10" stroke-width="0.2"/>
      </g>
      <path id="Path_846" data-name="Path 846" d="M78.1,31.8a4.207,4.207,0,0,0-4.3,4.3,4.268,4.268,0,0,0,4.3,4.3,4.207,4.207,0,0,0,4.3-4.3A4.149,4.149,0,0,0,78.1,31.8Zm0,6.8a2.608,2.608,0,0,1,0-5.2A2.422,2.422,0,0,1,80.5,36,2.482,2.482,0,0,1,78.1,38.6Zm-9.3-6.8a4.207,4.207,0,0,0-4.3,4.3,4.268,4.268,0,0,0,4.3,4.3,4.207,4.207,0,0,0,4.3-4.3A4.149,4.149,0,0,0,68.8,31.8Zm0,6.8a2.608,2.608,0,0,1,0-5.2A2.422,2.422,0,0,1,71.2,36,2.482,2.482,0,0,1,68.8,38.6ZM57.7,33.1v1.8H62a3.781,3.781,0,0,1-1,2.3,4.426,4.426,0,0,1-3.3,1.3A4.656,4.656,0,0,1,53,33.7a4.717,4.717,0,0,1,4.7-4.8A4.958,4.958,0,0,1,61,30.2l1.3-1.3a6.408,6.408,0,0,0-4.5-1.8,6.6,6.6,0,1,0,0,13.2,5.755,5.755,0,0,0,4.6-1.9A6.02,6.02,0,0,0,64,34.2a3.75,3.75,0,0,0-.1-1.1H57.7Zm45.4,1.4a3.885,3.885,0,0,0-3.6-2.7,4.028,4.028,0,0,0-4,4.3,4.185,4.185,0,0,0,4.2,4.3,4.1,4.1,0,0,0,3.5-1.9l-1.4-1a2.437,2.437,0,0,1-2.1,1.2,2.17,2.17,0,0,1-2.1-1.3l5.7-2.4Zm-5.8,1.4a2.429,2.429,0,0,1,2.2-2.5,1.769,1.769,0,0,1,1.6.9ZM92.6,40h1.9V27.5H92.6Zm-3-7.3h0a3.293,3.293,0,0,0-2.3-1A4.3,4.3,0,0,0,83.2,36a4.141,4.141,0,0,0,4.1,4.2,2.871,2.871,0,0,0,2.2-1h.1v.6a2.273,2.273,0,0,1-4.4,1l-1.6.7A4.125,4.125,0,0,0,87.4,44c2.2,0,4-1.3,4-4.4V32H89.6v.7Zm-2.2,5.9a2.608,2.608,0,0,1,0-5.2A2.406,2.406,0,0,1,89.7,36,2.406,2.406,0,0,1,87.4,38.6Zm24.4-11.1h-4.5V40h1.9V35.3h2.6a3.9,3.9,0,1,0,0-7.8Zm.1,6h-2.7V29.2h2.7a2.2,2.2,0,0,1,2.2,2.1A2.289,2.289,0,0,1,111.9,33.5Zm11.5-1.8a3.361,3.361,0,0,0-3.3,1.9l1.7.7a1.766,1.766,0,0,1,1.7-.9,1.879,1.879,0,0,1,2,1.6v.1a3.967,3.967,0,0,0-1.9-.5c-1.8,0-3.6,1-3.6,2.8a2.93,2.93,0,0,0,3.1,2.8,2.814,2.814,0,0,0,2.4-1.2h.1v1h1.8V35.2A3.785,3.785,0,0,0,123.4,31.7Zm-.2,6.9c-.6,0-1.5-.3-1.5-1.1,0-1,1.1-1.3,2-1.3a3.867,3.867,0,0,1,1.7.4A2.329,2.329,0,0,1,123.2,38.6ZM133.7,32l-2.1,5.4h-.1L129.3,32h-2l3.3,7.6-1.9,4.2h1.9L135.7,32Zm-16.8,8h1.9V27.5h-1.9Z" fill="#fff"/>
      <g id="Group_1705" data-name="Group 1705">
        <path id="Path_847" data-name="Path 847" d="M20.4,17.5a1.978,1.978,0,0,0-.5,1.4V41a1.978,1.978,0,0,0,.5,1.4l.1.1L32.9,30.1v-.2L20.4,17.5Z" fill="url(#linear-gradient)"/>
        <path id="Path_848" data-name="Path 848" d="M37,34.3l-4.1-4.1v-.3L37,25.8l.1.1L42,28.7c1.4.8,1.4,2.1,0,2.9l-5,2.7Z" fill="url(#linear-gradient-2)"/>
        <path id="Path_849" data-name="Path 849" d="M37.1,34.2,32.9,30,20.4,42.5c.5.5,1.2.5,2.1.1l14.6-8.4" fill="url(#linear-gradient-3)"/>
        <path id="Path_850" data-name="Path 850" d="M37.1,25.8,22.5,17.5a1.621,1.621,0,0,0-2.1.1L32.9,30Z" fill="url(#linear-gradient-4)"/>
        <g id="Group_1704" data-name="Group 1704">
          <path id="Path_851" data-name="Path 851" d="M37,34.1,22.5,42.3a1.635,1.635,0,0,1-2,0h0l-.1.1h0l.1.1h0a1.635,1.635,0,0,0,2,0L37,34.1Z" opacity="0.2"/>
          <path id="Path_852" data-name="Path 852" d="M20.4,42.3a1.955,1.955,0,0,1-.4-1.4V41a1.978,1.978,0,0,0,.5,1.4v-.1Z" opacity="0.12"/>
        </g>
        <path id="Path_853" data-name="Path 853" d="M42,31.3l-5,2.8.1.1L42,31.4A1.662,1.662,0,0,0,43,30h0C43,30.5,42.6,30.9,42,31.3Z" opacity="0.12"/>
        <path id="Path_854" data-name="Path 854" d="M22.5,17.6,42,28.7c.6.4,1,.8,1,1.3h0a1.662,1.662,0,0,0-1-1.4L22.5,17.5c-1.4-.8-2.5-.1-2.5,1.5v.1C20,17.5,21.1,16.8,22.5,17.6Z" fill="#fff" opacity="0.25"/>
      </g>
    </g>
  </g>
</svg>