<svg xmlns="http://www.w3.org/2000/svg" xmlns:xlink="http://www.w3.org/1999/xlink" width="135" height="40" viewBox="0 0 135 40">
  <defs>
    <linearGradient id="linear-gradient" x1="-3.19" y1="10.938" x2="-3.19" y2="10.899" gradientUnits="objectBoundingBox">
      <stop offset="0" stop-color="#fb6361"/>
      <stop offset="1" stop-color="#ed3e45"/>
    </linearGradient>
    <clipPath id="clip-AppGallery">
      <rect width="135" height="40"/>
    </clipPath>
  </defs>
  <g id="AppGallery" clip-path="url(#clip-AppGallery)">
    <g id="appgallery-2" data-name="appgallery" transform="translate(-10 -10)">
      <g id="App_gallery" data-name="App gallery">
        <g id="Group_71">
          <path id="Path_119" d="M140,50H15a4.951,4.951,0,0,1-5-5V15a4.951,4.951,0,0,1,5-5H140a4.951,4.951,0,0,1,5,5V45A4.951,4.951,0,0,1,140,50Z"/>
        </g>
        <g id="Group_73">
          <g id="Group_72">
            <path id="Path_120" d="M140,10.8a4.225,4.225,0,0,1,4.2,4.2V45a4.225,4.225,0,0,1-4.2,4.2H15A4.225,4.225,0,0,1,10.8,45V15A4.225,4.225,0,0,1,15,10.8H140m0-.8H15a4.951,4.951,0,0,0-5,5V45a4.951,4.951,0,0,0,5,5H140a4.951,4.951,0,0,0,5-5V15A4.951,4.951,0,0,0,140,10Z" fill="#a6a6a6"/>
          </g>
        </g>
        <g id="Group_74" transform="translate(18.3)">
          <path id="Path_124" d="M69.9,23V17h.8v6Z" fill="#fff" stroke="#fff" stroke-miterlimit="10" stroke-width="0.2"/>
          <path id="Path_125" d="M74.1,23h-.8V17.7H71.6V17h4.1v.7H74l.1,5.3Z" fill="#fff" stroke="#fff" stroke-miterlimit="10" stroke-width="0.2"/>
          <path id="Path_126" d="M83.6,22.2a3.139,3.139,0,0,1-4.4,0,3.1,3.1,0,1,1,4.4,0Zm-3.8-.5a2.36,2.36,0,0,0,1.6.7,1.99,1.99,0,0,0,1.6-.7,2.837,2.837,0,0,0,.7-1.7,2.193,2.193,0,0,0-.7-1.7,2.36,2.36,0,0,0-1.6-.7,1.99,1.99,0,0,0-1.6.7,2.837,2.837,0,0,0-.7,1.7A2.193,2.193,0,0,0,79.8,21.7Z" fill="#fff" stroke="#fff" stroke-miterlimit="10" stroke-width="0.2"/>
          <path id="Path_127" d="M85.6,23V17h.9l2.9,4.7h0V17h.8v6h-.8l-3.1-4.9h0V23Z" fill="#fff" stroke="#fff" stroke-miterlimit="10" stroke-width="0.2"/>
        </g>
        <g id="ic_ag" transform="translate(18 15)">
          <g id="编组" transform="translate(2 2)">
            <path id="Fill-1" d="M7.3,0C1.9,0,0,1.9,0,7.3V18.7C0,24,1.9,26,7.3,26H18.7C24,26,26,24.1,26,18.7V7.3C26,2,24.1,0,18.7,0Z" fill="url(#linear-gradient)"/>
            <path id="Fill-1-2" d="M11.3,15h1l-.5-1.2Zm-.3.6-.3.7H10l1.5-3.4h.6l1.5,3.4h-.7l-.3-.7Zm11.3.7H23V12.9h-.7Zm-2.7-1.4h1.3v-.6H19.6v-.7h1.8V13H19v3.4h2.6v-.6H19.7Zm-2.7.4L16.1,13h-.6l-.8,2.3L14,13h-.7l1.2,3.4h.6l.8-2.2.8,2.2h.6L18.5,13h-.7ZM9,14.9c0,.6-.3.8-.8.8s-.8-.3-.8-.9V12.9H6.8v1.9A1.342,1.342,0,0,0,8,16.3h.3a1.357,1.357,0,0,0,1.5-1.2V12.9H9Zm-3.9-2h.7v3.4H5.1V15H3.6v1.4H2.9V13h.7v1.4H5.2V12.9Z" fill="#fff"/>
            <path id="Fill-3" d="M12.9,8.6A4.268,4.268,0,0,1,8.6,4.3h.6a3.7,3.7,0,0,0,7.4,0h.6a4.207,4.207,0,0,1-4.3,4.3" fill="#fff"/>
          </g>
        </g>
        <g id="Group_77" data-name="Group 77">
          <path id="Path_137" data-name="Path 137" d="M52.4,17.7v2h2.2v.6H52.4v2h2.4V23H51.6V17.1h3.2v.6Z" fill="#fff"/>
          <path id="Path_138" data-name="Path 138" d="M58.4,20l1.8,3h-.9L58,20.7,56.6,23h-.9l1.8-3-1.8-3h.9L58,19.3,59.4,17h.9Z" fill="#fff"/>
          <path id="Path_139" data-name="Path 139" d="M64.7,20a2.251,2.251,0,0,1-1.5.5H62.1V23h-.8V17.1h1.9a2.07,2.07,0,0,1,1.5.5,1.727,1.727,0,0,1,.5,1.3A1.069,1.069,0,0,1,64.7,20Zm-.5-.4a1.136,1.136,0,0,0,.3-.8c0-.7-.4-1.1-1.3-1.1H62.1v2.2h1.1A1.493,1.493,0,0,0,64.2,19.6Z" fill="#fff"/>
          <path id="Path_140" data-name="Path 140" d="M67,22.4h2.1V23H66.3V17.1H67Z" fill="#fff"/>
          <path id="Path_141" data-name="Path 141" d="M71.1,22.7A2.9,2.9,0,0,1,70,21.6a2.934,2.934,0,0,1-.4-1.6,2.934,2.934,0,0,1,.4-1.6,2.905,2.905,0,0,1,1.1-1.1,2.822,2.822,0,0,1,1.5-.4,2.41,2.41,0,0,1,1.5.4,2.9,2.9,0,0,1,1.1,1.1,2.934,2.934,0,0,1,.4,1.6,2.934,2.934,0,0,1-.4,1.6,2.905,2.905,0,0,1-1.1,1.1,2.822,2.822,0,0,1-1.5.4A3.313,3.313,0,0,1,71.1,22.7Zm2.6-.6a3.044,3.044,0,0,0,.8-.8,2.663,2.663,0,0,0,.3-1.2,2.133,2.133,0,0,0-.3-1.2,1.562,1.562,0,0,0-.8-.8,2.167,2.167,0,0,0-2.2,0,3.044,3.044,0,0,0-.8.8,2.663,2.663,0,0,0-.3,1.2,2.133,2.133,0,0,0,.3,1.2,2.047,2.047,0,0,0,.8.8,2.167,2.167,0,0,0,2.2,0Z" fill="#fff"/>
          <path id="Path_142" data-name="Path 142" d="M79.7,23l-1.4-2.4h-.9V23h-.8V17.1h1.9a3.6,3.6,0,0,1,1.1.2,4.349,4.349,0,0,1,.7.6,1.344,1.344,0,0,1,.2.9,1.5,1.5,0,0,1-.4,1.1,1.975,1.975,0,0,1-1.1.6L80.5,23h-.8Zm-2.4-3h1.1a1.222,1.222,0,0,0,.9-.3,1.136,1.136,0,0,0,.3-.8.984.984,0,0,0-.3-.8,1.222,1.222,0,0,0-.9-.3H77.3Z" fill="#fff"/>
          <path id="Path_143" data-name="Path 143" d="M82.5,17.7v2h2.2v.6H82.5v2h2.4V23H81.7V17.1h3.2v.6Z" fill="#fff"/>
        </g>
        <g id="Group_79" data-name="Group 79">
          <path id="Path_151" data-name="Path 151" d="M57.6,36.6H53.7L52.8,39H51.3l3.5-9.2h1.8L60,39H58.4Zm-.5-1.2-1.1-3-.4-1.3h0l-.4,1.3-1.1,3Z" fill="#fff"/>
          <path id="Path_152" data-name="Path 152" d="M68.3,35.5c0,2.3-1.2,3.7-3.1,3.7a2.645,2.645,0,0,1-2.3-1.3V42H61.4V32h1.3l.1,1.3a2.486,2.486,0,0,1,2.4-1.4C67.1,31.9,68.3,33.2,68.3,35.5Zm-1.5,0c0-1.5-.7-2.4-1.9-2.4S63,34,63,35.5v.2c0,1.5.8,2.3,1.9,2.3C66.1,37.9,66.8,37,66.8,35.5Z" fill="#fff"/>
          <path id="Path_153" data-name="Path 153" d="M77.1,35.5c0,2.3-1.2,3.7-3.1,3.7a2.645,2.645,0,0,1-2.3-1.3V42H70.2V32h1.3l.1,1.3A2.486,2.486,0,0,1,74,31.9C76,31.9,77.1,33.2,77.1,35.5Zm-1.5,0c0-1.5-.7-2.4-1.9-2.4s-1.9.9-1.9,2.4v.2c0,1.5.8,2.3,1.9,2.3C74.9,37.9,75.6,37,75.6,35.5Z" fill="#fff"/>
          <path id="Path_154" data-name="Path 154" d="M87,34.2V39H85.9l-.1-1.2A3.166,3.166,0,0,1,83,39.1c-2.6,0-4.3-1.8-4.3-4.8,0-2.9,1.7-4.8,4.4-4.8a3.733,3.733,0,0,1,3.8,2.2l-1.4.7a2.335,2.335,0,0,0-2.4-1.5c-1.7,0-2.9,1.3-2.9,3.5s1,3.5,2.9,3.5c1.4,0,2.5-.7,2.5-2.1v-.3H82.8V34.3H87Z" fill="#fff"/>
          <path id="Path_155" data-name="Path 155" d="M95.8,38l-.1,1a2,2,0,0,1-.9.2c-.8,0-1.3-.3-1.4-1a2.608,2.608,0,0,1-2.4,1c-1.3,0-2.3-.6-2.3-1.8,0-1.1.9-1.9,2.7-2.2l1.8-.3v-.4a1.312,1.312,0,0,0-1.4-1.4A1.723,1.723,0,0,0,90,34.4l-1.2-.6A2.753,2.753,0,0,1,91.7,32c1.8,0,3,.8,3,2.5v3.2c0,.4.1.5.5.5A.845.845,0,0,1,95.8,38Zm-2.5-1.3v-.8l-1.5.3c-1,.2-1.4.5-1.4,1.1,0,.5.4.8,1.1.8C92.3,38,93.3,37.5,93.3,36.7Z" fill="#fff"/>
          <path id="Path_156" data-name="Path 156" d="M98.7,37c0,.7.2.9.7.9a1.344,1.344,0,0,0,.9-.2l-.2,1.2a2.345,2.345,0,0,1-1.2.2c-1.2,0-1.8-.6-1.8-2V28.8h1.5V37Z" fill="#fff"/>
          <path id="Path_157" data-name="Path 157" d="M103,37c0,.7.2.9.7.9a1.486,1.486,0,0,0,.9-.2l-.2,1.2a2.345,2.345,0,0,1-1.2.2c-1.2,0-1.8-.6-1.8-2V28.8h1.5V37Z" fill="#fff"/>
          <path id="Path_158" data-name="Path 158" d="M112.1,36.1H107a1.979,1.979,0,0,0,2,1.9,1.728,1.728,0,0,0,1.8-1l1.2.5a3.082,3.082,0,0,1-3,1.6,3.284,3.284,0,0,1-3.5-3.6c0-2.2,1.2-3.6,3.4-3.6a3.124,3.124,0,0,1,3.3,3.4A1.95,1.95,0,0,1,112.1,36.1ZM107,34.9h3.8A1.816,1.816,0,0,0,109,33C107.8,33,107.2,33.7,107,34.9Z" fill="#fff"/>
          <path id="Path_159" data-name="Path 159" d="M118.5,32l-.2,1.4a2,2,0,0,0-.9-.2,1.938,1.938,0,0,0-1.8,2.1V39h-1.5V32h1.3l.1,1.2a2.208,2.208,0,0,1,2.2-1.4C118,31.9,118.3,31.9,118.5,32Z" fill="#fff"/>
          <path id="Path_160" data-name="Path 160" d="M123.1,39.8c-.6,1.6-1.3,2.2-2.6,2.2a2.523,2.523,0,0,1-1.7-.6l.4-1.1a1.274,1.274,0,0,0,1.1.5c.5,0,.9-.2,1.2-1l.5-.8-.7-1.7L119.1,32h1.7l1.5,4.4.4,1.3.5-1.4,1.5-4.3h1.6Z" fill="#fff"/>
        </g>
      </g>
    </g>
  </g>
</svg>
